<mxfile host="65bd71144e" pages="2">
    <diagram id="beDGnjfkKSLwrwUo9Oyk" name="Page-2">
        <mxGraphModel dx="576" dy="427" grid="1" gridSize="10" guides="1" tooltips="1" connect="1" arrows="1" fold="1" page="1" pageScale="1" pageWidth="850" pageHeight="1100" math="0" shadow="0">
            <root>
                <mxCell id="rgCSnwu9Jpfe-jQjMlov-0"/>
                <mxCell id="rgCSnwu9Jpfe-jQjMlov-1" parent="rgCSnwu9Jpfe-jQjMlov-0"/>
                <mxCell id="rgCSnwu9Jpfe-jQjMlov-2" value="Computer" style="swimlane;fontStyle=1;align=center;verticalAlign=top;childLayout=stackLayout;horizontal=1;startSize=26;horizontalStack=0;resizeParent=1;resizeParentMax=0;resizeLast=0;collapsible=1;marginBottom=0;" parent="rgCSnwu9Jpfe-jQjMlov-1" vertex="1">
                    <mxGeometry x="360" y="176" width="160" height="84" as="geometry"/>
                </mxCell>
                <mxCell id="rgCSnwu9Jpfe-jQjMlov-3" value="- inputDevice: InputDevice" style="text;strokeColor=none;fillColor=none;align=left;verticalAlign=top;spacingLeft=4;spacingRight=4;overflow=hidden;rotatable=0;points=[[0,0.5],[1,0.5]];portConstraint=eastwest;" parent="rgCSnwu9Jpfe-jQjMlov-2" vertex="1">
                    <mxGeometry y="26" width="160" height="24" as="geometry"/>
                </mxCell>
                <mxCell id="rgCSnwu9Jpfe-jQjMlov-4" value="" style="line;strokeWidth=1;fillColor=none;align=left;verticalAlign=middle;spacingTop=-1;spacingLeft=3;spacingRight=3;rotatable=0;labelPosition=right;points=[];portConstraint=eastwest;" parent="rgCSnwu9Jpfe-jQjMlov-2" vertex="1">
                    <mxGeometry y="50" width="160" height="8" as="geometry"/>
                </mxCell>
                <mxCell id="rgCSnwu9Jpfe-jQjMlov-5" value="+ input(): any" style="text;strokeColor=none;fillColor=none;align=left;verticalAlign=top;spacingLeft=4;spacingRight=4;overflow=hidden;rotatable=0;points=[[0,0.5],[1,0.5]];portConstraint=eastwest;" parent="rgCSnwu9Jpfe-jQjMlov-2" vertex="1">
                    <mxGeometry y="58" width="160" height="26" as="geometry"/>
                </mxCell>
                <mxCell id="9eOb3V0LKxRyGb9d7qch-0" value="&lt;&lt;InputDevice&gt;&gt;" style="swimlane;fontStyle=1;align=center;verticalAlign=top;childLayout=stackLayout;horizontal=1;startSize=26;horizontalStack=0;resizeParent=1;resizeParentMax=0;resizeLast=0;collapsible=1;marginBottom=0;" parent="rgCSnwu9Jpfe-jQjMlov-1" vertex="1">
                    <mxGeometry x="620" y="176" width="160" height="60" as="geometry"/>
                </mxCell>
                <mxCell id="9eOb3V0LKxRyGb9d7qch-2" value="" style="line;strokeWidth=1;fillColor=none;align=left;verticalAlign=middle;spacingTop=-1;spacingLeft=3;spacingRight=3;rotatable=0;labelPosition=right;points=[];portConstraint=eastwest;" parent="9eOb3V0LKxRyGb9d7qch-0" vertex="1">
                    <mxGeometry y="26" width="160" height="8" as="geometry"/>
                </mxCell>
                <mxCell id="9eOb3V0LKxRyGb9d7qch-3" value="+ input(): any" style="text;strokeColor=none;fillColor=none;align=left;verticalAlign=top;spacingLeft=4;spacingRight=4;overflow=hidden;rotatable=0;points=[[0,0.5],[1,0.5]];portConstraint=eastwest;" parent="9eOb3V0LKxRyGb9d7qch-0" vertex="1">
                    <mxGeometry y="34" width="160" height="26" as="geometry"/>
                </mxCell>
                <mxCell id="9eOb3V0LKxRyGb9d7qch-4" value="" style="endArrow=diamondThin;endFill=1;endSize=24;html=1;rounded=0;entryX=1;entryY=0.5;entryDx=0;entryDy=0;exitX=0;exitY=0.5;exitDx=0;exitDy=0;" parent="rgCSnwu9Jpfe-jQjMlov-1" target="rgCSnwu9Jpfe-jQjMlov-3" edge="1">
                    <mxGeometry width="160" relative="1" as="geometry">
                        <mxPoint x="620" y="214" as="sourcePoint"/>
                        <mxPoint x="630" y="310" as="targetPoint"/>
                    </mxGeometry>
                </mxCell>
                <mxCell id="80lQNBLWF6B72AK8yBRx-4" style="edgeStyle=orthogonalEdgeStyle;rounded=0;orthogonalLoop=1;jettySize=auto;html=1;dashed=1;endArrow=block;endFill=0;endSize=16;" parent="rgCSnwu9Jpfe-jQjMlov-1" source="9eOb3V0LKxRyGb9d7qch-6" target="9eOb3V0LKxRyGb9d7qch-0" edge="1">
                    <mxGeometry relative="1" as="geometry"/>
                </mxCell>
                <mxCell id="9eOb3V0LKxRyGb9d7qch-6" value="KeyBoard" style="swimlane;fontStyle=1;align=center;verticalAlign=top;childLayout=stackLayout;horizontal=1;startSize=26;horizontalStack=0;resizeParent=1;resizeParentMax=0;resizeLast=0;collapsible=1;marginBottom=0;" parent="rgCSnwu9Jpfe-jQjMlov-1" vertex="1">
                    <mxGeometry x="520" y="320" width="160" height="60" as="geometry"/>
                </mxCell>
                <mxCell id="9eOb3V0LKxRyGb9d7qch-8" value="" style="line;strokeWidth=1;fillColor=none;align=left;verticalAlign=middle;spacingTop=-1;spacingLeft=3;spacingRight=3;rotatable=0;labelPosition=right;points=[];portConstraint=eastwest;" parent="9eOb3V0LKxRyGb9d7qch-6" vertex="1">
                    <mxGeometry y="26" width="160" height="8" as="geometry"/>
                </mxCell>
                <mxCell id="9eOb3V0LKxRyGb9d7qch-9" value="+ input(): any" style="text;strokeColor=none;fillColor=none;align=left;verticalAlign=top;spacingLeft=4;spacingRight=4;overflow=hidden;rotatable=0;points=[[0,0.5],[1,0.5]];portConstraint=eastwest;" parent="9eOb3V0LKxRyGb9d7qch-6" vertex="1">
                    <mxGeometry y="34" width="160" height="26" as="geometry"/>
                </mxCell>
                <mxCell id="80lQNBLWF6B72AK8yBRx-3" style="edgeStyle=orthogonalEdgeStyle;rounded=0;orthogonalLoop=1;jettySize=auto;html=1;dashed=1;endArrow=block;endFill=0;endSize=16;" parent="rgCSnwu9Jpfe-jQjMlov-1" source="80lQNBLWF6B72AK8yBRx-0" target="9eOb3V0LKxRyGb9d7qch-0" edge="1">
                    <mxGeometry relative="1" as="geometry"/>
                </mxCell>
                <mxCell id="80lQNBLWF6B72AK8yBRx-0" value="KeyBoard" style="swimlane;fontStyle=1;align=center;verticalAlign=top;childLayout=stackLayout;horizontal=1;startSize=26;horizontalStack=0;resizeParent=1;resizeParentMax=0;resizeLast=0;collapsible=1;marginBottom=0;" parent="rgCSnwu9Jpfe-jQjMlov-1" vertex="1">
                    <mxGeometry x="720" y="320" width="160" height="60" as="geometry"/>
                </mxCell>
                <mxCell id="80lQNBLWF6B72AK8yBRx-1" value="" style="line;strokeWidth=1;fillColor=none;align=left;verticalAlign=middle;spacingTop=-1;spacingLeft=3;spacingRight=3;rotatable=0;labelPosition=right;points=[];portConstraint=eastwest;" parent="80lQNBLWF6B72AK8yBRx-0" vertex="1">
                    <mxGeometry y="26" width="160" height="8" as="geometry"/>
                </mxCell>
                <mxCell id="80lQNBLWF6B72AK8yBRx-2" value="+ input(): any" style="text;strokeColor=none;fillColor=none;align=left;verticalAlign=top;spacingLeft=4;spacingRight=4;overflow=hidden;rotatable=0;points=[[0,0.5],[1,0.5]];portConstraint=eastwest;" parent="80lQNBLWF6B72AK8yBRx-0" vertex="1">
                    <mxGeometry y="34" width="160" height="26" as="geometry"/>
                </mxCell>
                <mxCell id="AHsLxcJLiM64n0sKgAVd-0" value="Computer" style="swimlane;fontStyle=1;align=center;verticalAlign=top;childLayout=stackLayout;horizontal=1;startSize=26;horizontalStack=0;resizeParent=1;resizeParentMax=0;resizeLast=0;collapsible=1;marginBottom=0;" parent="rgCSnwu9Jpfe-jQjMlov-1" vertex="1">
                    <mxGeometry x="360" y="510" width="180" height="84" as="geometry"/>
                </mxCell>
                <mxCell id="AHsLxcJLiM64n0sKgAVd-1" value="- outputDevice: OutputDevice" style="text;strokeColor=none;fillColor=none;align=left;verticalAlign=top;spacingLeft=4;spacingRight=4;overflow=hidden;rotatable=0;points=[[0,0.5],[1,0.5]];portConstraint=eastwest;" parent="AHsLxcJLiM64n0sKgAVd-0" vertex="1">
                    <mxGeometry y="26" width="180" height="24" as="geometry"/>
                </mxCell>
                <mxCell id="AHsLxcJLiM64n0sKgAVd-2" value="" style="line;strokeWidth=1;fillColor=none;align=left;verticalAlign=middle;spacingTop=-1;spacingLeft=3;spacingRight=3;rotatable=0;labelPosition=right;points=[];portConstraint=eastwest;" parent="AHsLxcJLiM64n0sKgAVd-0" vertex="1">
                    <mxGeometry y="50" width="180" height="8" as="geometry"/>
                </mxCell>
                <mxCell id="AHsLxcJLiM64n0sKgAVd-3" value="+ output(): any" style="text;strokeColor=none;fillColor=none;align=left;verticalAlign=top;spacingLeft=4;spacingRight=4;overflow=hidden;rotatable=0;points=[[0,0.5],[1,0.5]];portConstraint=eastwest;" parent="AHsLxcJLiM64n0sKgAVd-0" vertex="1">
                    <mxGeometry y="58" width="180" height="26" as="geometry"/>
                </mxCell>
                <mxCell id="AHsLxcJLiM64n0sKgAVd-4" value="&lt;&lt;OutputDevice&gt;&gt;" style="swimlane;fontStyle=1;align=center;verticalAlign=top;childLayout=stackLayout;horizontal=1;startSize=26;horizontalStack=0;resizeParent=1;resizeParentMax=0;resizeLast=0;collapsible=1;marginBottom=0;" parent="rgCSnwu9Jpfe-jQjMlov-1" vertex="1">
                    <mxGeometry x="620" y="510" width="160" height="60" as="geometry"/>
                </mxCell>
                <mxCell id="AHsLxcJLiM64n0sKgAVd-5" value="" style="line;strokeWidth=1;fillColor=none;align=left;verticalAlign=middle;spacingTop=-1;spacingLeft=3;spacingRight=3;rotatable=0;labelPosition=right;points=[];portConstraint=eastwest;" parent="AHsLxcJLiM64n0sKgAVd-4" vertex="1">
                    <mxGeometry y="26" width="160" height="8" as="geometry"/>
                </mxCell>
                <mxCell id="AHsLxcJLiM64n0sKgAVd-6" value="+ output(): any" style="text;strokeColor=none;fillColor=none;align=left;verticalAlign=top;spacingLeft=4;spacingRight=4;overflow=hidden;rotatable=0;points=[[0,0.5],[1,0.5]];portConstraint=eastwest;" parent="AHsLxcJLiM64n0sKgAVd-4" vertex="1">
                    <mxGeometry y="34" width="160" height="26" as="geometry"/>
                </mxCell>
                <mxCell id="AHsLxcJLiM64n0sKgAVd-7" value="" style="endArrow=diamondThin;endFill=1;endSize=24;html=1;rounded=0;entryX=1;entryY=0.5;entryDx=0;entryDy=0;exitX=0;exitY=0.5;exitDx=0;exitDy=0;" parent="rgCSnwu9Jpfe-jQjMlov-1" target="AHsLxcJLiM64n0sKgAVd-1" edge="1">
                    <mxGeometry width="160" relative="1" as="geometry">
                        <mxPoint x="620" y="548" as="sourcePoint"/>
                        <mxPoint x="630" y="644" as="targetPoint"/>
                    </mxGeometry>
                </mxCell>
                <mxCell id="AHsLxcJLiM64n0sKgAVd-8" style="edgeStyle=orthogonalEdgeStyle;rounded=0;orthogonalLoop=1;jettySize=auto;html=1;dashed=1;endArrow=block;endFill=0;endSize=16;" parent="rgCSnwu9Jpfe-jQjMlov-1" source="AHsLxcJLiM64n0sKgAVd-9" target="AHsLxcJLiM64n0sKgAVd-4" edge="1">
                    <mxGeometry relative="1" as="geometry"/>
                </mxCell>
                <mxCell id="AHsLxcJLiM64n0sKgAVd-9" value="Monitor" style="swimlane;fontStyle=1;align=center;verticalAlign=top;childLayout=stackLayout;horizontal=1;startSize=26;horizontalStack=0;resizeParent=1;resizeParentMax=0;resizeLast=0;collapsible=1;marginBottom=0;" parent="rgCSnwu9Jpfe-jQjMlov-1" vertex="1">
                    <mxGeometry x="520" y="654" width="160" height="60" as="geometry"/>
                </mxCell>
                <mxCell id="AHsLxcJLiM64n0sKgAVd-10" value="" style="line;strokeWidth=1;fillColor=none;align=left;verticalAlign=middle;spacingTop=-1;spacingLeft=3;spacingRight=3;rotatable=0;labelPosition=right;points=[];portConstraint=eastwest;" parent="AHsLxcJLiM64n0sKgAVd-9" vertex="1">
                    <mxGeometry y="26" width="160" height="8" as="geometry"/>
                </mxCell>
                <mxCell id="AHsLxcJLiM64n0sKgAVd-11" value="+ output(): void" style="text;strokeColor=none;fillColor=none;align=left;verticalAlign=top;spacingLeft=4;spacingRight=4;overflow=hidden;rotatable=0;points=[[0,0.5],[1,0.5]];portConstraint=eastwest;" parent="AHsLxcJLiM64n0sKgAVd-9" vertex="1">
                    <mxGeometry y="34" width="160" height="26" as="geometry"/>
                </mxCell>
                <mxCell id="AHsLxcJLiM64n0sKgAVd-12" style="edgeStyle=orthogonalEdgeStyle;rounded=0;orthogonalLoop=1;jettySize=auto;html=1;dashed=1;endArrow=block;endFill=0;endSize=16;" parent="rgCSnwu9Jpfe-jQjMlov-1" source="AHsLxcJLiM64n0sKgAVd-13" target="AHsLxcJLiM64n0sKgAVd-4" edge="1">
                    <mxGeometry relative="1" as="geometry"/>
                </mxCell>
                <mxCell id="AHsLxcJLiM64n0sKgAVd-13" value="Speaker" style="swimlane;fontStyle=1;align=center;verticalAlign=top;childLayout=stackLayout;horizontal=1;startSize=26;horizontalStack=0;resizeParent=1;resizeParentMax=0;resizeLast=0;collapsible=1;marginBottom=0;" parent="rgCSnwu9Jpfe-jQjMlov-1" vertex="1">
                    <mxGeometry x="720" y="654" width="160" height="60" as="geometry"/>
                </mxCell>
                <mxCell id="AHsLxcJLiM64n0sKgAVd-14" value="" style="line;strokeWidth=1;fillColor=none;align=left;verticalAlign=middle;spacingTop=-1;spacingLeft=3;spacingRight=3;rotatable=0;labelPosition=right;points=[];portConstraint=eastwest;" parent="AHsLxcJLiM64n0sKgAVd-13" vertex="1">
                    <mxGeometry y="26" width="160" height="8" as="geometry"/>
                </mxCell>
                <mxCell id="AHsLxcJLiM64n0sKgAVd-15" value="+ output(): void" style="text;strokeColor=none;fillColor=none;align=left;verticalAlign=top;spacingLeft=4;spacingRight=4;overflow=hidden;rotatable=0;points=[[0,0.5],[1,0.5]];portConstraint=eastwest;" parent="AHsLxcJLiM64n0sKgAVd-13" vertex="1">
                    <mxGeometry y="34" width="160" height="26" as="geometry"/>
                </mxCell>
                <mxCell id="AHsLxcJLiM64n0sKgAVd-16" value="Output diagram" style="text;html=1;strokeColor=none;fillColor=none;align=center;verticalAlign=middle;whiteSpace=wrap;rounded=0;" parent="rgCSnwu9Jpfe-jQjMlov-1" vertex="1">
                    <mxGeometry x="520" y="450" width="120" height="30" as="geometry"/>
                </mxCell>
            </root>
        </mxGraphModel>
    </diagram>
    <diagram id="CE8y71r34OHHwYAhWMIM" name="Page-3">
        <mxGraphModel dx="576" dy="427" grid="1" gridSize="10" guides="1" tooltips="1" connect="1" arrows="1" fold="1" page="1" pageScale="1" pageWidth="850" pageHeight="1100" math="0" shadow="0">
            <root>
                <mxCell id="0-PlWivmI86Ssj4BgKXo-0"/>
                <mxCell id="0-PlWivmI86Ssj4BgKXo-1" parent="0-PlWivmI86Ssj4BgKXo-0"/>
                <mxCell id="Ax3n1TerPAWD_x5MRekO-0" value="Computer" style="swimlane;fontStyle=1;align=center;verticalAlign=top;childLayout=stackLayout;horizontal=1;startSize=26;horizontalStack=0;resizeParent=1;resizeParentMax=0;resizeLast=0;collapsible=1;marginBottom=0;" parent="0-PlWivmI86Ssj4BgKXo-1" vertex="1">
                    <mxGeometry x="360" y="176" width="160" height="84" as="geometry"/>
                </mxCell>
                <mxCell id="Ax3n1TerPAWD_x5MRekO-1" value="- keyboard: Keyboard&#10;- mouse: Mouse" style="text;strokeColor=none;fillColor=none;align=left;verticalAlign=top;spacingLeft=4;spacingRight=4;overflow=hidden;rotatable=0;points=[[0,0.5],[1,0.5]];portConstraint=eastwest;" parent="Ax3n1TerPAWD_x5MRekO-0" vertex="1">
                    <mxGeometry y="26" width="160" height="24" as="geometry"/>
                </mxCell>
                <mxCell id="Ax3n1TerPAWD_x5MRekO-2" value="" style="line;strokeWidth=1;fillColor=none;align=left;verticalAlign=middle;spacingTop=-1;spacingLeft=3;spacingRight=3;rotatable=0;labelPosition=right;points=[];portConstraint=eastwest;" parent="Ax3n1TerPAWD_x5MRekO-0" vertex="1">
                    <mxGeometry y="50" width="160" height="8" as="geometry"/>
                </mxCell>
                <mxCell id="Ax3n1TerPAWD_x5MRekO-3" value="+ input(data): void" style="text;strokeColor=none;fillColor=none;align=left;verticalAlign=top;spacingLeft=4;spacingRight=4;overflow=hidden;rotatable=0;points=[[0,0.5],[1,0.5]];portConstraint=eastwest;" parent="Ax3n1TerPAWD_x5MRekO-0" vertex="1">
                    <mxGeometry y="58" width="160" height="26" as="geometry"/>
                </mxCell>
                <mxCell id="Ax3n1TerPAWD_x5MRekO-7" value="" style="endArrow=diamondThin;endFill=1;endSize=24;html=1;rounded=0;entryX=1;entryY=0.5;entryDx=0;entryDy=0;exitX=0;exitY=0.5;exitDx=0;exitDy=0;" parent="0-PlWivmI86Ssj4BgKXo-1" target="Ax3n1TerPAWD_x5MRekO-1" edge="1">
                    <mxGeometry width="160" relative="1" as="geometry">
                        <mxPoint x="620" y="214" as="sourcePoint"/>
                        <mxPoint x="630" y="310" as="targetPoint"/>
                    </mxGeometry>
                </mxCell>
                <mxCell id="Ax3n1TerPAWD_x5MRekO-8" value="KeyBoard" style="swimlane;fontStyle=1;align=center;verticalAlign=top;childLayout=stackLayout;horizontal=1;startSize=26;horizontalStack=0;resizeParent=1;resizeParentMax=0;resizeLast=0;collapsible=1;marginBottom=0;" parent="0-PlWivmI86Ssj4BgKXo-1" vertex="1">
                    <mxGeometry x="621" y="188" width="160" height="60" as="geometry"/>
                </mxCell>
                <mxCell id="Ax3n1TerPAWD_x5MRekO-9" value="" style="line;strokeWidth=1;fillColor=none;align=left;verticalAlign=middle;spacingTop=-1;spacingLeft=3;spacingRight=3;rotatable=0;labelPosition=right;points=[];portConstraint=eastwest;" parent="Ax3n1TerPAWD_x5MRekO-8" vertex="1">
                    <mxGeometry y="26" width="160" height="8" as="geometry"/>
                </mxCell>
                <mxCell id="Ax3n1TerPAWD_x5MRekO-10" value="+ input(data): void" style="text;strokeColor=none;fillColor=none;align=left;verticalAlign=top;spacingLeft=4;spacingRight=4;overflow=hidden;rotatable=0;points=[[0,0.5],[1,0.5]];portConstraint=eastwest;" parent="Ax3n1TerPAWD_x5MRekO-8" vertex="1">
                    <mxGeometry y="34" width="160" height="26" as="geometry"/>
                </mxCell>
                <mxCell id="Ax3n1TerPAWD_x5MRekO-12" value="Mouse" style="swimlane;fontStyle=1;align=center;verticalAlign=top;childLayout=stackLayout;horizontal=1;startSize=26;horizontalStack=0;resizeParent=1;resizeParentMax=0;resizeLast=0;collapsible=1;marginBottom=0;" parent="0-PlWivmI86Ssj4BgKXo-1" vertex="1">
                    <mxGeometry x="621" y="260" width="160" height="60" as="geometry"/>
                </mxCell>
                <mxCell id="Ax3n1TerPAWD_x5MRekO-13" value="" style="line;strokeWidth=1;fillColor=none;align=left;verticalAlign=middle;spacingTop=-1;spacingLeft=3;spacingRight=3;rotatable=0;labelPosition=right;points=[];portConstraint=eastwest;" parent="Ax3n1TerPAWD_x5MRekO-12" vertex="1">
                    <mxGeometry y="26" width="160" height="8" as="geometry"/>
                </mxCell>
                <mxCell id="Ax3n1TerPAWD_x5MRekO-14" value="+ input(data): void" style="text;strokeColor=none;fillColor=none;align=left;verticalAlign=top;spacingLeft=4;spacingRight=4;overflow=hidden;rotatable=0;points=[[0,0.5],[1,0.5]];portConstraint=eastwest;" parent="Ax3n1TerPAWD_x5MRekO-12" vertex="1">
                    <mxGeometry y="34" width="160" height="26" as="geometry"/>
                </mxCell>
                <mxCell id="Ax3n1TerPAWD_x5MRekO-15" value="" style="endArrow=diamondThin;endFill=1;endSize=24;html=1;rounded=0;entryX=1.009;entryY=0.823;entryDx=0;entryDy=0;exitX=0.008;exitY=-0.099;exitDx=0;exitDy=0;exitPerimeter=0;entryPerimeter=0;" parent="0-PlWivmI86Ssj4BgKXo-1" source="Ax3n1TerPAWD_x5MRekO-14" target="Ax3n1TerPAWD_x5MRekO-1" edge="1">
                    <mxGeometry width="160" relative="1" as="geometry">
                        <mxPoint x="630" y="224" as="sourcePoint"/>
                        <mxPoint x="530" y="224" as="targetPoint"/>
                    </mxGeometry>
                </mxCell>
            </root>
        </mxGraphModel>
    </diagram>
</mxfile>